<svg xmlns="http://www.w3.org/2000/svg" viewBox="0 0 32 40" x="0px" y="0px"><title>EcommerceArtboard 35 copy 2</title><g><path d="M24.347,5.132a1,1,0,0,0-1,.006A41.673,41.673,0,0,1,12.145,9.7a39.986,39.986,0,0,1-9.153,1.14,1,1,0,0,0-.992,1v5.842a1,1,0,0,0,.947,1c1.334.07,2.672.191,4.007.344l-.94,5.639A1,1,0,0,0,7,25.829h3a1,1,0,0,0,.986-.836l.87-5.22c.111.021.222.037.332.059a67.419,67.419,0,0,1,11.3,3.276,1,1,0,0,0,1.361-.932V6A1,1,0,0,0,24.347,5.132Z"/><path d="M30,13.833H27a.5.5,0,0,0,0,1h3a.5.5,0,0,0,0-1Z"/><path d="M27,8.329a.5.5,0,0,0,.224-.053l2-1a.5.5,0,0,0-.448-.894l-2,1A.5.5,0,0,0,27,8.329Z"/><path d="M29.224,21.382l-2-1a.5.5,0,1,0-.448.894l2,1a.5.5,0,0,0,.448-.894Z"/></g><text x="0" y="47" fill="#000000" font-size="5px" font-weight="bold" font-family="'Helvetica Neue', Helvetica, Arial-Unicode, Arial, Sans-serif">Created by Riffi Ridani</text><text x="0" y="52" fill="#000000" font-size="5px" font-weight="bold" font-family="'Helvetica Neue', Helvetica, Arial-Unicode, Arial, Sans-serif">from the Noun Project</text></svg>